<?xml version="1.0" standalone="no"?>
<!DOCTYPE svg PUBLIC "-//W3C//DTD SVG 20010904//EN"
 "http://www.w3.org/TR/2001/REC-SVG-20010904/DTD/svg10.dtd">
<svg version="1.0" xmlns="http://www.w3.org/2000/svg"
 width="502.000000pt" height="502.000000pt" viewBox="0 0 502.000000 502.000000"
 preserveAspectRatio="xMidYMid meet">
<metadata>
Created by potrace 1.11, written by Peter Selinger 2001-2013
</metadata>
<g transform="translate(0.000000,502.000000) scale(0.100000,-0.100000)"
fill="#000000" stroke="none">
<path d="M2899 4979 c-41 -40 -45 -49 -41 -82 5 -43 14 -45 59 -14 37 25 51
69 36 114 l-9 27 -45 -45z"/>
<path d="M2617 4923 c-14 -13 -7 -71 11 -92 9 -11 28 -22 42 -23 22 -3 25 1
28 30 3 25 -3 39 -27 62 -30 30 -42 36 -54 23z"/>
<path d="M1900 4884 c-17 -43 -11 -81 16 -113 14 -17 30 -29 35 -26 4 3 13 24
19 47 13 46 0 92 -31 108 -25 14 -28 13 -39 -16z"/>
<path d="M2756 4815 c-30 -306 -99 -473 -223 -542 l-40 -23 -27 27 c-14 14
-33 51 -42 80 -9 30 -32 89 -51 131 -19 43 -43 96 -54 120 -19 42 -35 58 -25
25 3 -10 8 -40 11 -68 4 -27 10 -63 15 -80 4 -16 12 -48 16 -70 4 -22 8 -44
10 -50 19 -69 36 -174 36 -230 1 -66 -10 -204 -17 -215 -2 -3 -6 -26 -10 -50
-4 -25 -10 -50 -13 -57 -13 -22 -170 191 -196 265 -35 100 -36 208 -3 282 14
30 28 66 32 80 6 24 6 24 -9 5 -8 -11 -25 -35 -38 -52 -26 -37 -36 -40 -45
-15 -20 60 -88 210 -111 245 -26 41 -82 100 -89 94 -2 -2 14 -42 36 -88 81
-176 111 -310 76 -339 -8 -6 -41 -12 -74 -12 -84 -1 -156 36 -247 126 -39 39
-81 84 -92 100 -12 16 -22 26 -22 23 0 -10 60 -132 90 -185 18 -30 30 -55 28
-57 -2 -2 -39 -7 -83 -10 -44 -4 -91 -8 -105 -10 -14 -2 -42 -4 -62 -4 -37 -1
-55 -16 -20 -17 31 -1 206 -15 252 -20 79 -9 161 -33 224 -67 77 -40 190 -150
250 -244 52 -81 119 -220 111 -232 -11 -19 -230 42 -399 112 -76 31 -113 53
-159 96 l-61 56 27 -49 c15 -27 27 -50 27 -51 0 -2 -17 1 -37 6 -59 13 -93 17
-168 23 l-70 6 73 -19 c272 -71 572 -250 645 -383 22 -42 22 -70 -2 -99 -15
-19 -27 -22 -75 -21 -32 1 -101 13 -154 27 -238 63 -469 178 -715 355 -13 9
-1 -15 29 -60 28 -41 61 -93 74 -114 22 -36 22 -39 4 -34 -10 3 -70 21 -132
41 -95 29 -110 31 -92 15 22 -21 241 -125 480 -229 80 -35 169 -77 198 -94
l53 -30 -28 -12 c-21 -10 -93 -12 -278 -8 -137 2 -272 7 -299 9 -55 5 -265 10
-311 7 -27 -2 -28 -3 -9 -11 12 -4 38 -11 59 -14 20 -4 40 -8 44 -10 3 -2 35
-7 71 -11 36 -3 83 -8 105 -10 22 -3 99 -7 170 -10 404 -17 434 -19 563 -45
159 -32 265 -108 292 -211 18 -67 33 -348 20 -369 -5 -7 -23 -14 -42 -15 -18
-2 -69 -6 -113 -9 -75 -7 -98 -9 -215 -21 -130 -13 -161 -16 -230 -20 -41 -2
-127 -7 -190 -11 -126 -7 -144 -8 -400 -19 -96 -4 -177 -9 -179 -11 -31 -29
345 -55 989 -69 260 -6 380 -12 388 -19 5 -6 3 -256 -4 -290 -9 -49 -34 -88
-100 -153 -145 -142 -220 -162 -615 -167 -118 -2 -226 -6 -241 -10 -31 -9 -37
-25 -10 -27 9 -1 26 -3 37 -4 55 -7 173 -15 290 -21 71 -3 139 -8 150 -10 141
-27 157 -34 121 -58 -63 -40 -370 -151 -481 -172 -98 -19 -80 -29 25 -14 36 5
98 12 139 16 82 7 80 12 25 -66 -17 -25 -42 -65 -54 -90 l-23 -45 47 52 c52
58 154 142 201 165 37 19 181 55 256 64 144 18 180 0 165 -82 -6 -27 -27 -52
-104 -121 -186 -165 -282 -225 -477 -293 -49 -17 -91 -33 -94 -35 -6 -7 150
12 182 22 16 4 17 2 8 -15 -11 -20 -31 -102 -26 -102 2 0 14 21 27 47 36 72
149 150 304 208 81 30 224 68 231 61 12 -12 2 -97 -16 -147 -26 -69 -101 -195
-141 -236 -66 -69 -157 -116 -359 -185 -64 -21 -123 -41 -131 -43 -8 -2 -26
-8 -40 -14 l-25 -12 25 6 c52 12 156 16 192 8 l37 -8 -66 -90 c-35 -49 -76
-112 -90 -140 l-25 -50 104 101 c168 164 222 208 279 224 25 7 32 5 44 -14 15
-22 14 -88 0 -156 -3 -14 -8 -38 -11 -55 -3 -16 -23 -97 -45 -180 -23 -82 -43
-159 -45 -170 l-3 -20 15 20 c28 37 76 138 124 265 64 166 61 160 70 160 5 0
12 -9 15 -20 6 -20 66 -82 73 -75 2 1 -6 21 -17 44 -30 58 -50 154 -46 221 7
126 91 291 192 379 53 45 56 44 68 -32 3 -18 10 -58 16 -90 11 -65 10 -225 -2
-271 -4 -17 -10 -44 -13 -61 -3 -16 -21 -90 -40 -163 -19 -72 -38 -162 -42
-200 -3 -37 -8 -70 -11 -75 -2 -4 -2 -7 1 -7 9 0 33 53 75 164 53 141 85 198
138 247 l44 40 32 -18 c59 -34 122 -156 143 -277 12 -72 45 -189 64 -229 l20
-42 -5 127 c-7 197 -55 362 -140 478 -91 125 -90 213 7 458 23 59 46 102 54
102 24 0 105 -102 232 -290 93 -139 150 -249 210 -400 57 -146 107 -243 99
-195 -5 29 -51 194 -98 343 -12 40 -19 75 -16 78 9 10 85 -38 183 -115 49 -39
93 -71 99 -71 5 0 -33 44 -85 97 -52 54 -97 100 -100 103 -40 42 -117 141
-157 200 -55 83 -136 237 -131 251 2 5 39 -13 83 -40 157 -94 379 -200 392
-187 2 2 -58 43 -134 92 -330 211 -446 336 -437 470 6 90 39 92 209 14 39 -18
102 -47 142 -65 111 -51 197 -105 352 -220 182 -135 199 -135 47 0 -37 33 -76
76 -86 96 -33 63 -29 64 232 64 217 1 294 7 284 24 -3 4 -24 8 -48 9 -24 2
-51 5 -60 8 -18 5 -46 11 -93 19 -16 3 -66 12 -110 20 -44 8 -100 17 -125 20
-354 45 -525 125 -599 278 -16 34 -28 64 -26 67 7 11 295 -3 315 -15 3 -2 25
-6 50 -10 25 -4 47 -8 50 -10 3 -2 21 -6 41 -9 72 -11 207 -46 272 -69 37 -14
67 -23 67 -21 0 1 -27 18 -60 36 -33 18 -59 37 -57 43 3 9 45 21 135 41 13 2
38 11 55 19 31 13 30 13 -43 15 -120 2 -337 16 -391 25 -13 2 -41 6 -61 9
-116 17 -253 62 -362 119 l-78 40 6 136 c3 75 5 143 6 153 0 13 12 16 73 18
39 0 101 3 137 4 36 2 144 7 240 10 96 4 213 9 260 11 47 2 139 7 205 10 146
7 239 13 325 21 36 4 71 7 78 7 6 0 12 4 12 9 0 4 -26 8 -57 9 -32 0 -92 2
-133 4 -146 8 -295 16 -335 20 -22 2 -87 6 -145 9 -58 4 -132 9 -165 11 -33 3
-107 7 -165 10 -252 12 -339 20 -352 33 -9 9 -18 250 -10 270 7 20 92 59 174
82 81 22 271 56 363 65 33 3 71 7 85 10 14 2 59 6 100 9 185 14 286 18 438 18
90 0 162 1 160 3 -6 5 -141 36 -179 41 -51 6 -135 13 -177 13 -36 1 -35 15 1
32 53 24 111 58 101 58 -5 1 -57 -14 -115 -33 -160 -52 -344 -79 -542 -78
-163 0 -287 16 -287 37 0 35 101 106 403 283 208 122 261 142 417 158 30 3 64
7 75 9 11 2 58 4 104 4 46 1 81 4 77 8 -12 12 -36 14 -236 19 -201 5 -240 9
-240 22 0 4 28 44 61 87 64 83 156 217 203 295 21 34 2 19 -75 -65 -193 -207
-314 -322 -388 -370 -153 -99 -404 -205 -484 -205 -50 0 -56 26 -23 93 34 71
139 196 375 446 18 20 47 53 65 74 17 21 44 45 60 54 49 26 92 80 111 142 7
24 7 24 -56 17 -153 -15 -186 -36 -207 -133 -11 -48 -13 -47 63 -43 41 2 42
-2 2 -29 -237 -160 -294 -194 -365 -216 -23 -7 -23 -6 9 57 27 54 150 243 168
258 3 3 26 32 51 65 25 33 47 62 50 65 3 3 30 36 60 75 l55 70 -75 -61 c-112
-90 -145 -112 -137 -90 27 69 57 219 56 281 l0 70 -28 -90 c-64 -205 -173
-433 -297 -620 -80 -121 -108 -152 -126 -138 -26 22 -85 157 -107 243 -43 172
-38 198 76 420 104 204 125 299 102 459 -17 115 -25 127 -33 46z"/>
<path d="M2462 4751 c-32 -105 -24 -177 24 -222 25 -23 25 -23 59 -5 36 20 67
78 60 114 -9 50 -91 152 -121 152 -6 0 -16 -17 -22 -39z"/>
<path d="M3048 4763 c-67 -14 -108 -44 -129 -95 -15 -36 -3 -47 51 -49 116 -4
171 34 196 134 6 26 4 27 -25 25 -17 -1 -59 -8 -93 -15z"/>
<path d="M2164 4732 c-39 -50 -46 -72 -39 -117 9 -67 26 -73 69 -25 41 45 47
89 21 140 -19 36 -24 36 -51 2z"/>
<path d="M1695 4690 c-13 -21 -6 -78 15 -123 32 -67 131 -144 168 -130 20 8 9
94 -17 137 -31 49 -154 136 -166 116z"/>
<path d="M3383 4528 c-53 -9 -86 -33 -107 -76 -27 -56 -22 -70 25 -66 81 6
149 54 164 117 5 20 2 25 -17 29 -13 2 -42 1 -65 -4z"/>
<path d="M2985 4499 c-59 -31 -92 -66 -100 -105 -10 -58 2 -66 65 -41 63 25
103 74 96 116 -2 14 -5 32 -5 39 -1 17 -10 15 -56 -9z"/>
<path d="M1270 4489 c-49 -15 -54 -23 -34 -53 33 -51 111 -75 181 -55 42 11
42 12 29 38 -34 65 -102 92 -176 70z"/>
<path d="M2218 4213 c-7 -60 7 -105 44 -135 18 -16 35 -28 39 -28 4 0 10 12
14 28 20 75 8 125 -39 156 -40 25 -53 20 -58 -21z"/>
<path d="M1123 4204 c-35 -37 -34 -51 2 -54 50 -5 74 3 115 37 38 32 40 38 24
44 -11 4 -39 8 -63 8 -38 1 -48 -4 -78 -35z"/>
<path d="M3776 4208 c-28 -43 -47 -99 -41 -121 4 -12 11 -35 17 -50 10 -27 11
-27 30 -10 28 25 48 67 48 101 0 28 -25 102 -35 102 -2 0 -11 -10 -19 -22z"/>
<path d="M2878 4191 c-13 -11 -50 -32 -82 -47 -88 -41 -109 -90 -77 -179 15
-44 21 -50 42 -46 13 1 38 10 54 18 78 40 105 91 100 192 -2 41 -6 75 -8 77
-2 3 -15 -4 -29 -15z"/>
<path d="M1319 4079 c-6 -75 38 -120 132 -134 40 -6 46 -4 46 12 2 41 -18 92
-43 108 -35 23 -134 33 -135 14z"/>
<path d="M1782 4002 c-32 -22 18 -110 77 -137 37 -16 124 -27 148 -18 28 11
-4 108 -45 138 -29 22 -156 34 -180 17z"/>
<path d="M3392 3816 c-17 -26 -29 -55 -27 -64 2 -9 4 -22 4 -28 1 -5 7 -19 15
-29 12 -17 15 -17 29 -3 38 38 55 79 46 111 -5 17 -15 38 -23 45 -13 13 -18 9
-44 -32z"/>
<path d="M3868 3772 c-14 -9 -36 -29 -47 -43 l-20 -25 37 -14 c42 -15 104 -15
132 0 11 6 31 26 46 46 23 29 25 37 13 45 -25 16 -132 10 -161 -9z"/>
<path d="M861 3751 c13 -37 62 -81 92 -82 12 0 40 -2 62 -3 22 -2 48 0 57 3
14 5 15 10 3 38 -20 48 -53 63 -144 70 l-81 5 11 -31z"/>
<path d="M1686 3588 c14 -66 66 -112 137 -121 39 -5 43 1 37 58 -4 43 -62 80
-138 90 l-44 5 8 -32z"/>
<path d="M3158 3590 c-61 -33 -104 -105 -103 -175 0 -35 15 -36 81 -4 46 22
59 43 78 138 15 70 9 75 -56 41z"/>
<path d="M843 3383 c-29 -14 -53 -28 -53 -32 0 -14 42 -52 67 -62 58 -22 138
5 180 60 18 24 16 27 -21 45 -49 23 -112 19 -173 -11z"/>
<path d="M3365 3234 c-33 -17 -95 -73 -95 -86 0 -12 48 -40 83 -48 41 -9 97
11 148 51 39 31 39 32 22 51 -43 47 -105 60 -158 32z"/>
<path d="M4117 3124 c-14 -8 -31 -23 -37 -33 -8 -16 -4 -21 30 -35 48 -19 73
-20 103 -5 42 21 73 75 45 76 -7 1 -36 3 -63 6 -33 3 -60 0 -78 -9z"/>
<path d="M1492 3110 c-18 -11 -41 -34 -52 -52 l-20 -33 28 -5 c60 -12 117 24
136 88 7 20 4 22 -26 22 -18 0 -48 -9 -66 -20z"/>
<path d="M1173 3110 c-23 -9 -58 -66 -45 -73 4 -3 27 -4 51 -3 34 2 48 8 60
26 19 29 23 50 8 51 -7 0 -21 2 -32 4 -11 2 -30 -1 -42 -5z"/>
<path d="M3504 2928 c-10 -15 28 -61 67 -80 19 -10 51 -18 71 -18 l37 0 -19
34 c-11 18 -29 41 -39 50 -21 19 -108 30 -117 14z"/>
<path d="M780 2436 c0 -2 7 -6 15 -10 8 -3 15 -1 15 4 0 6 -7 10 -15 10 -8 0
-15 -2 -15 -4z"/>
</g>
</svg>
